<?xml version="1.0" encoding="UTF-8"?>
<svg id="Camada_2" xmlns="http://www.w3.org/2000/svg" viewBox="0 0 839.69 554.95">
  <defs>
    <style>
      .cls-1 {
        fill: #fff;
      }

      .cls-2 {
        fill: #ff202a;
      }
    </style>
  </defs>
  <g id="Camada_1-2" data-name="Camada_1">
    <path class="cls-1" d="M409.08,554.95h-14.8l-17.53-50.12c-1.02-2.94-3.69-4.85-6.81-4.85h-14.94c-3.12,0-5.79,1.91-6.81,4.84l-17.54,50.13h-14.8l19.85-56.63c2.52-7.45,9.58-12.47,17.56-12.47h18.42c7.98,0,15.04,5.02,17.56,12.49l19.83,56.6Z"/>
    <path class="cls-1" d="M93.22,554.95h-14.8l-17.53-50.12c-1.03-2.94-3.7-4.85-6.82-4.85h-14.93c-3.12,0-5.79,1.91-6.82,4.84l-17.53,50.13H0l19.85-56.63c2.52-7.45,9.58-12.47,17.55-12.47h18.42c7.98,0,15.04,5.02,17.56,12.49l19.84,56.6Z"/>
    <path class="cls-1" d="M554.36,519.95v.91c0,12.19,8.23,20.06,20.97,20.06h48.66v14.03h-48.66c-20.61,0-35.01-14.02-35.01-34.09v-.91c0-20.07,14.4-34.09,35.01-34.09h48.66v14.03h-48.66c-12.73,0-20.97,7.87-20.97,20.06Z"/>
    <path class="cls-1" d="M189.42,495.61c-6.33-6.3-15.28-9.76-25.2-9.76-.07,0-.13,0-.21,0h-36.19c-8.2,0-13.93,5.72-13.93,13.93v41.22c0,8.21,5.73,13.93,13.93,13.93h36.19c20.29,0,35.01-14.37,35.01-34.18v-.82c0-9.54-3.41-18.18-9.6-24.34ZM184.98,519.95v.82c0,5.79-1.97,10.81-5.7,14.51-3.78,3.75-9.15,5.82-15.16,5.82h-33.54c-1.65,0-2.55-.91-2.55-2.55v-36.38c0-1.64.9-2.55,2.55-2.55h33.35c12.4,0,21.06,8.36,21.06,20.33Z"/>
    <polygon class="cls-1" points="665.5 499.99 665.5 513.34 730.34 513.34 730.34 527.47 665.5 527.47 665.5 540.82 730.34 540.82 730.34 554.95 651.37 554.95 651.37 485.86 730.34 485.86 730.34 499.99 665.5 499.99"/>
    <polygon class="cls-2" points="839.69 512.51 839.69 526.65 807.17 526.65 807.17 554.23 793.03 554.23 793.03 526.65 760.52 526.65 760.52 512.51 793.03 512.51 793.03 487.12 807.17 487.12 807.17 512.51 839.69 512.51"/>
    <path class="cls-1" d="M513.11,485.86v69.09h-18.42c-7.87,0-15.32-4.52-18.97-11.5l-20.8-40.32c-.94-1.9-2.99-3.15-5.12-3.15h-6.3v54.97h-14.13v-69.09h18.42c7.87,0,15.32,4.52,18.97,11.5l20.8,40.32c.95,1.85,3.06,3.15,5.12,3.15h6.3v-54.97h14.13Z"/>
    <path class="cls-1" d="M305.15,485.86l-19.85,56.63c-2.52,7.45-9.57,12.47-17.55,12.47h-20.25c-7.98,0-15.04-5.02-17.56-12.49l-19.84-56.6h14.8l18.18,51.86c.65,1.86,2.4,3.11,4.34,3.11h20.43c1.94,0,3.69-1.25,4.34-3.11l18.17-51.85h14.8Z"/>
    <g>
      <polygon class="cls-2" points="235.52 145.77 308.53 161.35 236.57 367.11 157.95 367.11 235.52 145.77"/>
      <path class="cls-1" d="M653.22,367.11h-78.61l-93.15-266.29c-5.42-15.62-19.67-25.75-36.2-25.75h-79.34c-16.53,0-30.77,10.13-36.2,25.67l-10.13,28.93-72.97-15.55,16.78-47.88C276.78,26.69,314.31,0,356.62,0h97.85c42.38,0,79.92,26.69,93.33,66.39l105.41,300.72Z"/>
    </g>
  </g>
</svg>