<?xml version="1.0" standalone="no"?>
<!DOCTYPE svg PUBLIC "-//W3C//DTD SVG 20010904//EN"
 "http://www.w3.org/TR/2001/REC-SVG-20010904/DTD/svg10.dtd">
<svg version="1.0" xmlns="http://www.w3.org/2000/svg"
 width="564.000000pt" height="570.000000pt" viewBox="0 0 564.000000 570.000000"
 preserveAspectRatio="xMidYMid meet">

<g transform="translate(0.000000,570.000000) scale(0.100000,-0.100000)"
fill="#000000" stroke="none">
<path d="M100 5165 l0 -425 420 0 420 0 0 425 0 425 -420 0 -420 0 0 -425z
m718 3 l-3 -303 -295 0 -295 0 -3 303 -2 302 300 0 300 0 -2 -302z"/>
<path d="M340 5170 l0 -180 180 0 180 0 0 180 0 180 -180 0 -180 0 0 -180z"/>
<path d="M1065 5577 c-3 -7 -4 -60 -3 -118 l3 -104 63 -3 62 -3 0 -59 0 -59
118 -3 117 -3 3 -57 3 -58 -60 0 -61 0 -2 -182 -3 -183 -57 -3 -58 -3 0 61 0
60 -65 0 -65 0 0 -120 0 -120 -180 0 -181 0 3 -57 3 -58 118 -3 117 -3 0 -59
0 -60 -180 0 -180 0 0 120 0 120 -120 0 -120 0 0 -60 0 -60 60 0 60 0 0 -240
0 -240 60 0 60 0 2 -242 3 -243 177 -3 177 -2 3 -58 3 -57 58 -3 57 -3 0 -120
0 -120 -117 3 -118 3 -3 58 -3 57 61 0 60 0 0 60 0 60 -120 0 -120 0 0 -120 0
-120 -60 0 -60 0 0 60 0 60 -60 0 -60 0 0 -60 0 -60 -120 0 -120 0 0 -60 0
-60 -60 0 -60 0 0 -60 0 -60 60 0 60 0 0 60 0 60 60 0 60 0 0 -170 0 -170 -60
0 -59 0 -3 58 -3 57 -58 3 -57 3 0 -61 0 -60 60 0 61 0 -3 -62 -3 -63 -57 -3
-58 -3 0 -60 0 -60 57 3 58 3 3 58 3 57 119 0 119 0 3 -57 3 -58 58 -3 57 -3
0 -239 0 -240 60 0 60 0 0 -60 0 -60 120 0 120 0 0 60 0 60 -60 0 -60 0 0 60
0 60 60 0 60 0 0 60 0 60 60 0 60 0 0 60 0 59 63 3 62 3 3 183 2 182 121 0
120 0 -3 58 -3 57 -117 3 -118 3 0 169 0 169 118 3 117 3 3 58 3 57 59 0 60 0
0 -180 0 -180 -60 0 -60 0 0 -50 0 -50 60 0 60 0 0 50 0 50 60 0 60 0 0 -110
0 -110 60 0 60 0 0 110 0 110 60 0 60 0 0 -50 0 -50 120 0 120 0 0 -60 c0 -41
4 -60 13 -61 6 0 33 0 59 1 l47 1 3 -63 3 -63 123 -3 123 -3 -3 -57 -3 -57
-57 -3 -58 -3 0 -59 0 -60 180 0 181 0 -3 -57 -3 -58 -117 -3 -117 -3 -3 -57
-3 -57 -57 -3 -57 -3 -3 -117 -3 -117 -60 0 -60 0 -3 58 -3 57 -59 0 -60 0 0
60 0 60 -60 0 -60 0 0 60 0 60 -60 0 -60 0 0 60 0 60 60 0 60 0 0 60 0 60 60
0 60 0 0 125 0 126 -57 -3 -58 -3 -3 -123 -3 -123 -117 3 -117 3 -3 58 -3 57
-119 0 -120 0 0 -60 0 -60 60 0 60 0 0 -60 0 -60 -60 0 -60 0 0 -180 0 -180
60 0 60 0 0 120 0 120 60 0 60 0 0 -60 0 -60 120 0 120 0 0 -60 0 -60 60 0 60
0 0 -120 0 -120 60 0 60 0 0 -60 0 -61 63 3 62 3 3 58 3 57 59 0 60 0 0 120 0
119 58 3 57 3 3 58 3 57 59 0 60 0 0 -60 0 -60 110 0 110 0 0 -180 0 -180 -60
0 -60 0 0 120 0 120 -110 0 -110 0 0 -60 0 -59 58 -3 57 -3 3 -57 3 -58 -61 0
-60 0 0 -60 0 -60 -60 0 -60 0 0 -59 c0 -33 4 -61 10 -63 5 -1 32 -1 60 0 l50
4 0 59 0 59 110 0 110 0 0 -60 0 -59 -107 -3 -108 -3 -5 -60 -5 -60 -57 -3
-58 -3 0 66 0 66 -122 -3 -123 -3 -3 -182 -2 -183 -120 0 -120 0 0 -60 0 -60
-60 0 -60 0 0 120 0 120 120 0 120 0 0 60 0 59 -57 3 -58 3 -5 60 -5 60 -45 2
c-25 1 -51 2 -57 2 -9 1 -13 20 -13 61 l0 60 120 0 120 0 0 60 0 60 -60 0 -60
0 0 120 0 120 -240 0 -240 0 0 -120 0 -120 -60 0 -60 0 0 -60 0 -60 -120 0
-120 0 0 -185 0 -185 -65 0 -65 0 2 -177 3 -178 63 -3 62 -3 0 -59 0 -59 -62
-3 -63 -3 0 -115 0 -115 60 -5 60 -5 3 -57 3 -57 -63 -3 -63 -3 -3 -57 -3 -58
66 0 65 0 0 60 0 60 60 0 60 0 0 -60 0 -60 60 0 61 0 -3 58 -3 57 -57 3 -58 3
0 119 0 120 180 0 180 0 0 -60 0 -60 -60 0 -60 0 0 -120 0 -120 240 0 240 0 0
60 0 60 -120 0 -120 0 0 180 0 180 60 0 60 0 0 -120 0 -120 120 0 120 0 0
-120 0 -121 123 3 122 3 0 58 0 58 60 -3 60 -3 3 -57 3 -58 169 0 170 0 0 120
0 120 -50 0 -50 0 0 -60 0 -60 -120 0 -119 0 -3 58 -3 57 -59 0 -59 0 -1 -55
-1 -55 -62 -3 -63 -3 0 181 0 180 -60 0 -60 0 0 -60 0 -60 -60 0 -60 0 0 120
0 120 183 2 182 3 0 58 0 57 63 0 62 0 0 -120 0 -120 120 0 120 0 0 -60 0 -60
230 0 229 0 3 58 3 57 60 0 60 0 3 -57 3 -58 59 0 60 0 0 60 0 60 60 0 60 0 0
60 0 60 -60 0 -60 0 0 60 0 59 58 3 57 3 3 57 3 57 57 3 57 3 3 58 3 57 -61 0
-60 0 0 60 0 59 58 3 57 3 5 60 5 60 55 0 55 0 3 -122 3 -123 59 0 60 0 0 -60
0 -60 -60 0 -60 0 0 -60 0 -60 -60 0 -60 0 0 -60 0 -60 60 0 60 0 0 -60 0 -60
-60 0 -60 0 0 -60 0 -60 -60 0 -60 0 0 -60 0 -60 60 0 60 0 0 60 0 60 120 0
120 0 0 120 0 120 60 0 60 0 0 -60 0 -60 60 0 60 0 0 180 0 180 60 0 60 0 0
-180 0 -180 183 -2 182 -3 3 -118 3 -117 59 0 60 0 0 60 0 60 60 0 60 0 0 -60
0 -59 58 -3 57 -3 3 -58 3 -57 -61 0 -60 0 0 -60 0 -60 60 0 60 0 0 60 0 61
58 -3 57 -3 3 -57 3 -58 119 0 119 0 3 58 3 57 58 3 57 3 0 59 0 60 -120 0
-120 0 0 60 0 60 60 0 60 0 0 60 0 60 60 0 60 0 0 120 0 120 -60 0 -60 0 0
-120 0 -120 -60 0 -60 0 0 -60 0 -60 -60 0 -60 0 0 120 0 120 60 0 60 0 0 60
0 60 -60 0 -60 0 0 -60 0 -60 -60 0 -60 0 0 240 0 240 60 0 59 0 3 -57 3 -58
118 -3 117 -3 0 60 0 60 58 3 57 3 0 60 0 60 -58 3 -58 3 3 57 3 57 58 3 57 3
0 59 0 60 -180 0 -180 0 0 120 0 120 60 0 60 0 0 -60 0 -60 120 0 120 0 0 120
0 120 -60 0 -60 0 0 -60 0 -60 -60 0 -60 0 0 60 0 60 -120 0 -120 0 0 60 0 60
240 0 240 0 0 60 0 59 -57 3 -58 3 -3 117 -3 118 61 0 61 0 -3 123 -3 122 -58
3 -58 3 3 57 3 57 58 3 57 3 0 169 0 169 -57 3 -58 3 -3 118 -3 117 -60 0 -60
0 3 123 3 122 118 3 117 3 0 59 0 60 -120 0 -120 0 0 60 0 60 -60 0 -60 0 0
60 0 60 60 0 60 0 0 60 0 60 60 0 60 0 0 60 0 60 60 0 60 0 0 60 0 60 -60 0
-60 0 0 -60 0 -60 -60 0 -60 0 0 120 0 120 120 0 120 0 0 60 0 60 -120 0 -120
0 0 -60 0 -60 -60 0 -60 0 0 60 0 60 -60 0 -60 0 0 -180 0 -180 -60 0 -60 0 0
60 0 60 -180 0 -179 0 -3 118 -3 117 -62 3 -63 3 0 59 0 60 -60 0 -60 0 0 60
0 60 -60 0 -61 0 3 63 3 62 183 3 183 2 -3 118 -3 117 -62 3 -63 3 0 119 0
119 63 3 62 3 0 55 0 55 -60 0 -60 0 -3 -57 -3 -57 -57 -3 -57 -3 -3 -177 -2
-178 -60 0 -60 0 0 60 0 60 -60 0 -60 0 0 60 0 60 -60 0 -60 0 0 120 0 120
-60 0 -60 0 0 -120 0 -120 -180 0 -180 0 0 60 0 60 60 0 60 0 0 60 0 60 -182
-2 -183 -3 0 -55 0 -55 60 -5 60 -5 3 -57 3 -58 59 0 60 0 0 -60 0 -60 -60 0
-60 0 0 -60 0 -60 -65 0 -65 0 0 120 0 121 -57 -3 -58 -3 -3 -57 -3 -58 -59 0
-60 0 0 120 0 120 60 0 60 0 0 60 0 61 -57 -3 -58 -3 -3 -57 -3 -58 -59 0 -60
0 0 -60 0 -60 -50 0 -50 0 0 60 0 60 -120 0 -120 0 0 -60 0 -60 -60 0 -59 0
-3 118 -3 117 -60 0 -60 0 -3 -57 -3 -58 -59 0 -60 0 0 60 0 60 -60 0 -60 0 0
-60 0 -60 -60 0 -60 0 0 -60 0 -60 -60 0 -60 0 0 60 0 60 -60 0 -60 0 0 60 0
60 -60 0 -60 0 0 -60 0 -60 60 0 60 0 0 -120 0 -120 180 0 180 0 0 120 0 120
60 0 60 0 0 -120 0 -120 60 0 59 0 3 -57 3 -58 60 0 60 0 1 55 1 55 61 3 62 3
0 60 0 60 58 -3 57 -3 3 -57 3 -58 109 0 110 0 0 -60 0 -60 -170 0 -170 0 -2
-362 -3 -363 -60 -3 -60 -3 3 283 c1 156 0 293 -3 306 -5 22 -8 23 -123 20
l-117 -3 -3 -62 -3 -63 -60 0 -60 0 3 -57 3 -58 58 -3 57 -3 0 -59 0 -60 -60
0 -60 0 0 60 0 59 -57 3 -58 3 -5 120 -5 120 -57 3 -57 3 -3 57 -3 57 -117 3
-118 3 0 59 0 60 -60 0 -59 0 -3 58 -3 57 -117 3 -117 3 -3 117 -3 117 -58 3
c-41 2 -59 -1 -62 -11z m2885 -407 l0 -180 -120 0 -121 0 3 -122 3 -123 55 0
55 0 3 58 3 57 59 0 60 0 0 -180 0 -180 60 0 60 0 0 -60 0 -60 60 0 60 0 0 60
0 60 60 0 60 0 0 60 0 60 -120 0 -120 0 0 120 0 120 60 0 59 0 3 -57 3 -58 58
-3 57 -3 0 -59 0 -60 60 0 60 0 0 -120 0 -120 -60 0 -60 0 0 -60 0 -60 -180 0
-180 0 0 60 0 60 -60 0 -60 0 0 -60 0 -60 -180 0 -180 0 0 -180 0 -179 58 -3
57 -3 3 -57 3 -58 59 0 60 0 0 180 0 180 120 0 120 0 0 -60 0 -60 -60 0 -60 0
0 -60 0 -60 120 0 120 0 0 60 0 60 60 0 60 0 0 -180 0 -180 -60 0 -60 0 0 60
0 60 -180 0 -181 0 3 -122 3 -123 58 -3 57 -3 0 -59 0 -60 60 0 60 0 0 60 0
60 60 0 60 0 0 -60 0 -60 60 0 59 0 3 123 3 122 57 3 57 3 3 -63 3 -63 57 -3
57 -3 3 63 3 63 57 3 c53 3 58 1 63 -21 4 -13 5 -41 3 -63 l-3 -39 -62 -3 -63
-3 0 -120 0 -120 63 3 62 3 3 57 3 57 57 3 57 3 3 57 3 57 57 3 57 3 3 63 3
62 -61 0 -60 0 0 60 0 61 58 -3 57 -3 3 -57 3 -58 59 0 60 0 0 60 0 60 -60 0
-60 0 0 120 0 120 60 0 60 0 0 60 0 60 -120 0 -120 0 0 -120 0 -120 -60 0 -59
0 -3 58 -3 57 -123 3 -123 3 3 57 3 57 120 5 120 5 3 58 3 57 179 0 180 0 0
-60 0 -60 120 0 120 0 0 -60 0 -60 -120 0 -120 0 0 -120 0 -120 60 0 60 0 0
60 0 60 60 0 60 0 0 -120 0 -119 -57 -3 -58 -3 -5 -60 -5 -60 -117 -3 -118 -3
0 -59 0 -60 60 0 60 0 0 -60 0 -60 60 0 60 0 0 -60 0 -60 60 0 60 0 0 120 0
120 60 0 60 0 0 -180 0 -180 60 0 60 0 0 -60 0 -60 -60 0 -60 0 0 60 0 60 -60
0 -60 0 0 -110 0 -110 60 0 59 0 3 -122 3 -123 58 -3 57 -3 0 -59 0 -60 -60 0
-60 0 0 -120 0 -120 -240 0 -240 0 0 -60 0 -60 60 0 60 0 0 -60 0 -60 -60 0
-60 0 0 -60 0 -59 58 -3 57 -3 3 -57 3 -57 57 -3 57 -3 3 -57 3 -58 60 0 60 0
-3 -122 -3 -121 -55 -1 -55 -1 -5 -60 -5 -60 -177 -3 -178 -2 0 65 0 65 -60 0
-60 0 0 60 0 61 58 -3 57 -3 3 -57 3 -58 109 0 c61 0 113 0 118 0 4 0 7 53 7
118 l0 117 -177 3 -177 2 -3 -57 -3 -58 -60 -5 -60 -5 -3 -123 -3 -122 -59 0
-60 0 0 -60 0 -60 60 0 60 0 0 -60 0 -60 -60 0 -60 0 0 60 0 60 -60 0 -60 0 0
-60 0 -61 -57 3 -58 3 -3 58 -3 57 -60 0 -60 0 3 122 3 123 55 0 55 0 5 -60 5
-60 118 -3 118 -3 -3 63 -3 63 -57 3 -58 3 0 59 0 60 -240 0 -239 0 -3 58 -3
57 -117 3 -118 3 0 -60 0 -60 58 -3 57 -3 3 -122 3 -123 -60 0 -60 0 -3 -118
-3 -117 -57 -3 -57 -3 -3 -117 -3 -117 -60 0 -60 0 -3 57 -3 57 -57 3 -57 3
-3 118 -3 117 60 0 60 0 3 -57 3 -58 63 -3 62 -3 0 60 0 60 -62 3 -63 3 -3
123 -3 123 -57 -3 -57 -3 -3 -63 -3 -63 -57 3 -57 3 -3 183 -2 182 60 0 60 0
0 -60 0 -60 60 0 59 0 3 58 3 57 123 3 122 3 0 59 0 60 60 0 60 0 0 60 0 60
-60 0 -60 0 0 60 0 60 -60 0 -60 0 0 -60 0 -61 -122 3 -123 3 0 55 0 55 57 3
56 3 4 43 c5 72 3 75 -60 78 l-57 3 0 55 0 55 58 3 57 3 0 -61 0 -61 63 3 62
3 3 57 3 57 -63 3 -63 3 0 115 0 115 63 3 62 3 0 125 0 125 58 -3 57 -3 5 -60
5 -60 58 -3 58 -3 -3 -57 -3 -57 -117 -3 -118 -3 0 -120 0 -120 58 3 57 3 3
58 3 57 119 0 120 0 0 -60 0 -60 60 0 60 0 0 60 0 60 60 0 60 0 0 -120 0 -120
60 0 60 0 0 120 0 120 60 0 59 0 3 -57 3 -58 240 0 240 0 3 118 3 117 -126 0
-125 0 0 -60 0 -61 -57 3 -58 3 -3 57 -3 57 -117 3 -117 3 -3 57 -3 57 58 3
58 3 5 60 5 60 115 0 115 0 5 -60 5 -60 123 -3 122 -3 0 -60 0 -60 58 3 57 3
3 58 3 57 59 0 60 0 0 -60 0 -61 58 3 57 3 3 353 2 352 -120 0 -120 0 0 60 0
60 -60 0 -59 0 -3 -57 -3 -58 -122 -3 -123 -3 0 -119 0 -120 -60 0 -60 0 0
-50 0 -50 -120 0 -120 0 0 50 0 50 -240 0 -240 0 0 -50 0 -49 118 -3 117 -3 0
-180 0 -180 -57 -3 -57 -3 -3 123 -3 123 -57 3 -57 3 -3 57 -3 57 -57 3 -57 3
-3 47 -3 47 -57 3 -58 3 0 119 0 119 -62 3 -63 3 0 55 0 55 -60 5 -60 5 -3 58
-3 57 -60 0 -60 0 3 -57 3 -58 58 -3 57 -3 0 -59 0 -60 -350 0 -349 0 -3 118
-3 117 -63 3 -62 3 0 -180 0 -180 123 -3 122 -3 0 -55 0 -55 -57 -3 -58 -3 0
-49 0 -49 58 -3 57 -3 3 -57 3 -57 -109 -3 c-60 -2 -117 -2 -126 0 -14 3 -16
25 -16 172 l0 169 -57 3 -58 3 -3 58 -3 57 -119 0 -120 0 0 -60 0 -60 60 0 60
0 0 -60 0 -60 -60 0 -60 0 0 60 0 60 -60 0 -60 0 0 -60 0 -60 -60 0 -60 0 0
60 0 60 60 0 60 0 0 60 0 60 60 0 60 0 0 60 0 60 -60 0 -60 0 0 60 0 60 240 0
240 0 0 60 0 59 63 3 62 3 3 39 c2 22 1 50 -3 63 -5 23 -7 24 -123 21 l-117
-3 -3 -63 -3 -63 -117 3 -117 3 -5 60 -5 60 -55 0 -55 0 -5 -60 -5 -60 -57 -3
-58 -3 0 -119 0 -120 -60 0 -60 0 0 120 0 120 -120 0 -120 0 0 -60 0 -60 60 0
60 0 0 -60 0 -60 -120 0 -120 0 0 60 0 60 -66 0 -66 0 2 43 c3 79 5 76 -57 79
l-58 3 -3 63 -3 62 -120 0 -120 0 3 58 3 57 117 3 118 3 0 -61 0 -60 60 0 60
0 0 120 0 120 -120 0 -120 0 0 60 0 60 -60 0 -60 0 0 60 0 60 -60 0 -60 0 0
60 0 60 60 0 60 0 0 -60 0 -60 60 0 59 0 3 58 3 57 180 0 180 0 3 -57 3 -58
119 0 120 0 0 -60 0 -60 60 0 60 0 0 -60 0 -59 58 -3 57 -3 3 -117 3 -116 59
-4 59 -3 3 60 3 60 57 3 57 3 3 57 3 57 58 3 57 3 0 -61 0 -60 60 0 59 0 3 58
3 57 58 3 57 3 0 59 0 60 -60 0 -60 0 0 120 0 120 -60 0 -60 0 0 -120 0 -120
-60 0 -60 0 0 60 0 60 -60 0 -60 0 0 60 0 60 120 0 120 0 0 120 0 120 -60 0
-60 0 0 -60 0 -60 -180 0 -180 0 0 -60 0 -60 -60 0 -60 0 0 60 0 60 60 0 60 0
0 60 0 60 60 0 60 0 0 60 0 60 -120 0 -120 0 0 245 0 245 60 0 60 0 2 -182 3
-183 58 -3 57 -3 0 61 0 60 60 0 61 0 -3 -57 -3 -58 -57 -3 -58 -3 0 -59 0
-60 180 0 180 0 0 -60 0 -60 120 0 120 0 0 -60 0 -59 63 -3 62 -3 3 -177 2
-178 60 0 60 0 0 120 0 121 58 -3 57 -3 3 -117 3 -118 -61 0 -60 0 0 -60 0
-60 170 0 170 0 0 -60 0 -60 120 0 119 0 3 58 3 57 57 3 57 3 3 57 3 57 63 3
62 3 0 119 0 120 -65 0 -65 0 0 -60 0 -60 -120 0 -120 0 0 -60 0 -60 60 0 60
0 0 -60 0 -60 -60 0 -60 0 0 60 0 60 -110 0 -110 0 0 60 0 60 110 0 110 0 0
120 0 120 60 0 59 0 3 -57 3 -58 58 -3 57 -3 0 60 0 60 -57 3 -58 3 0 360 0
360 58 3 57 3 0 -61 0 -60 65 0 65 0 0 60 0 60 60 0 60 0 0 60 0 60 120 0 120
0 0 -60 0 -60 60 0 60 0 0 120 0 120 60 0 60 0 0 -180z m-970 -365 l0 -185
-170 0 -170 0 0 185 0 185 170 0 170 0 0 -185z m-710 -6 l0 -59 -60 0 -60 0 0
59 0 60 33 3 c17 2 44 1 60 -1 26 -3 27 -5 27 -62z m-962 -296 l-3 -118 -120
0 -120 0 -3 118 -3 117 126 0 126 0 -3 -117z m1452 -63 l0 -60 50 0 50 0 0
-60 0 -60 -50 0 -50 0 0 60 0 60 -60 0 -60 0 0 60 0 60 60 0 60 0 0 -60z
m1795 -600 l0 -55 -62 -3 -63 -3 0 54 c0 29 3 57 7 61 4 4 32 6 63 4 l55 -3 0
-55z m-3975 -900 l0 -110 -60 0 -60 0 0 110 0 110 60 0 60 0 0 -110z m480 -60
l0 -170 -180 0 -180 0 0 170 0 170 180 0 180 0 0 -170z m1920 0 l0 -170 -170
0 -170 0 0 170 0 170 170 0 170 0 0 -170z m1940 0 l0 -170 -180 0 -180 0 0
170 0 170 180 0 180 0 0 -170z m-1700 0 l0 -50 -60 0 -60 0 0 43 c0 24 3 47 7
50 3 4 30 7 60 7 l53 0 0 -50z m128 -109 c2 -30 -1 -57 -6 -60 -6 -3 -35 -4
-66 -3 l-56 4 0 52 c0 29 3 56 7 60 4 4 32 6 63 4 l55 -3 3 -54z m-2408 -251
l0 -60 60 0 60 0 0 -60 0 -60 -60 0 -60 0 0 -60 0 -60 -60 0 -60 0 0 -60 0
-60 -60 0 -60 0 0 60 0 60 60 0 60 0 0 60 0 60 60 0 60 0 0 60 0 59 -57 3 -58
3 -3 58 -3 57 61 0 60 0 0 -60z m1820 0 l0 -60 110 0 110 0 0 60 0 60 60 0 60
0 0 -120 0 -120 -60 0 -60 0 0 -60 0 -61 -57 3 -58 3 -3 58 -3 57 -49 0 -50 0
0 60 0 60 -60 0 -60 0 0 60 0 60 60 0 60 0 0 -60z m-850 -960 l0 -59 -117 -3
-118 -3 -3 -57 c-2 -42 1 -58 10 -59 7 0 33 -1 58 -2 l45 -2 5 -60 5 -60 58
-3 57 -3 0 -59 0 -60 -60 0 -60 0 0 -60 0 -60 -180 0 -179 0 -3 -57 -3 -58
-57 -3 -57 -3 -3 -57 -3 -57 -57 -3 -58 -3 0 61 0 60 60 0 60 0 0 60 0 60 -60
0 -60 0 0 60 0 60 60 0 60 0 0 -60 0 -60 60 0 60 0 0 60 0 59 58 3 57 3 3 58
3 57 -121 0 -120 0 0 66 0 65 48 -1 c26 -1 53 -1 60 -1 8 1 12 20 12 61 l0 60
60 0 60 0 0 60 0 60 180 0 180 0 0 -60z m3490 -246 l0 -65 -57 3 -58 3 -3 49
c-5 69 -1 73 62 75 l56 1 0 -66z m-2882 -181 l-3 -118 -60 -5 -60 -5 0 -55 0
-55 -60 0 -60 0 -3 57 -3 57 63 3 c72 3 65 -11 67 146 l1 92 60 0 61 0 -3
-117z m462 -183 l0 -180 -170 0 -170 0 0 180 0 180 170 0 170 0 0 -180z m1940
0 l0 -180 -180 0 -180 0 0 180 0 180 180 0 180 0 0 -180z m-3130 -120 l0 -60
-60 0 -60 0 0 -60 0 -60 -120 0 -120 0 0 60 0 60 60 0 60 0 0 60 0 60 120 0
120 0 0 -60z m2160 0 l0 -60 -60 0 -60 0 0 60 0 60 60 0 60 0 0 -60z m-730
-120 l0 -61 -57 3 -58 3 -3 44 c-5 66 0 71 63 71 l55 0 0 -60z m-1912 -122 l3
-58 -61 0 -60 0 0 60 0 61 58 -3 57 -3 3 -57z m3732 2 l0 -60 -60 0 -60 0 0
60 0 60 60 0 60 0 0 -60z"/>
<path d="M3468 4868 l-3 -243 -120 -5 -120 -5 0 -55 0 -55 63 -3 62 -3 0 -119
0 -120 60 0 60 0 0 60 0 60 180 0 180 0 0 60 0 60 -120 0 -120 0 2 243 3 242
58 3 57 3 0 59 0 60 -120 0 -120 0 -2 -242z"/>
<path d="M3222 4803 l3 -58 60 0 60 0 3 58 3 57 -66 0 -66 0 3 -57z"/>
<path d="M2150 4320 l0 -60 60 0 60 0 0 60 0 60 -60 0 -60 0 0 -60z"/>
<path d="M820 4080 l0 -60 60 0 60 0 0 60 0 60 -60 0 -60 0 0 -60z"/>
<path d="M1067 4133 c-4 -3 -7 -57 -7 -120 l0 -113 65 0 65 0 0 120 0 120 -58
0 c-32 0 -62 -3 -65 -7z"/>
<path d="M1310 3840 l0 -60 -60 0 -60 0 0 -60 0 -60 60 0 60 0 0 60 0 60 60 0
60 0 0 -60 0 -59 58 -3 57 -3 3 -62 3 -63 59 0 60 0 0 65 0 65 -60 0 -59 0 -3
58 -3 57 -57 3 -57 3 -3 57 -3 57 -57 3 -58 3 0 -61z"/>
<path d="M2270 3840 l0 -61 63 3 62 3 0 55 0 55 -62 3 -63 3 0 -61z"/>
<path d="M3350 3781 l0 -119 56 -4 c31 -1 58 -1 60 1 2 2 4 58 4 123 l0 118
-60 0 -60 0 0 -119z"/>
<path d="M2760 3720 l0 -60 50 0 50 0 0 60 0 60 -50 0 -50 0 0 -60z"/>
<path d="M3107 3773 c-4 -3 -7 -30 -7 -60 l0 -53 60 0 60 0 0 60 0 60 -53 0
c-30 0 -57 -3 -60 -7z"/>
<path d="M1062 3598 l3 -63 60 0 60 0 0 60 0 60 -63 3 -63 3 3 -63z"/>
<path d="M2518 3598 l-3 -63 -57 -3 -56 -3 -4 -60 -3 -60 60 3 60 3 3 57 3 57
57 3 57 3 0 60 0 60 -57 3 -57 3 -3 -63z"/>
<path d="M3470 3595 l0 -66 58 3 57 3 0 60 0 60 -57 3 -58 3 0 -66z"/>
<path d="M3102 3473 l3 -58 57 -3 57 -3 3 -57 3 -57 60 0 60 0 3 118 3 117
-126 0 -126 0 3 -57z"/>
<path d="M2640 3350 l0 -61 58 3 57 3 3 58 3 57 -61 0 -60 0 0 -60z"/>
<path d="M3950 3350 l0 -60 -120 0 -120 0 0 -60 0 -60 60 0 60 0 0 -60 0 -60
60 0 60 0 0 120 0 120 60 0 60 0 0 -60 0 -60 180 0 180 0 0 60 0 59 -57 3 -58
3 -3 58 -3 57 -59 0 -60 0 0 -60 0 -60 -60 0 -60 0 0 60 0 60 -60 0 -60 0 0
-60z"/>
<path d="M3470 3230 l0 -61 58 3 57 3 3 58 3 57 -61 0 -60 0 0 -60z"/>
<path d="M4070 2990 l0 -60 60 0 60 0 0 60 0 60 -60 0 -60 0 0 -60z"/>
<path d="M5162 2523 l3 -58 58 -3 57 -3 0 61 0 60 -60 0 -61 0 3 -57z"/>
<path d="M3470 2040 l0 -60 60 0 60 0 0 60 0 60 -60 0 -60 0 0 -60z"/>
<path d="M3710 2040 l0 -60 60 0 60 0 0 -60 0 -60 -60 0 -60 0 0 -60 0 -60 60
0 60 0 0 -60 0 -60 60 0 60 0 0 60 0 60 60 0 60 0 0 -60 0 -60 60 0 60 0 0 60
0 60 60 0 60 0 0 60 0 60 -60 0 -60 0 0 60 0 60 60 0 60 0 0 60 0 60 -120 0
-120 0 0 -60 0 -60 -60 0 -60 0 0 60 0 60 -120 0 -120 0 0 -60z m240 -240 l0
-60 -60 0 -60 0 0 60 0 60 60 0 60 0 0 -60z m240 0 l0 -60 -60 0 -60 0 0 60 0
60 60 0 60 0 0 -60z"/>
<path d="M4680 2040 l0 -59 -122 -3 -123 -3 0 -55 0 -55 123 -3 122 -3 0 -59
0 -60 60 0 60 0 0 60 0 60 -60 0 -60 0 0 60 0 60 60 0 60 0 0 60 0 60 -60 0
-60 0 0 -60z"/>
<path d="M2762 4803 l3 -58 45 0 45 0 3 58 3 57 -51 0 -51 0 3 -57z"/>
<path d="M820 2880 l0 -50 60 0 60 0 0 50 0 50 -60 0 -60 0 0 -50z"/>
<path d="M2760 2880 l0 -50 50 0 50 0 0 50 0 50 -50 0 -50 0 0 -50z"/>
<path d="M4680 2880 l0 -50 61 0 60 0 -3 48 -3 47 -57 3 -58 3 0 -51z"/>
<path d="M2760 950 l0 -60 50 0 50 0 0 60 0 60 -50 0 -50 0 0 -60z"/>
<path d="M4680 950 l0 -61 58 3 57 3 3 58 3 57 -61 0 -60 0 0 -60z"/>
<path d="M4070 5530 l0 -60 60 0 60 0 0 60 0 60 -60 0 -60 0 0 -60z"/>
<path d="M4680 5165 l0 -425 420 0 420 0 0 425 0 425 -420 0 -420 0 0 -425z
m718 3 l-3 -303 -295 0 -295 0 -3 303 -2 302 300 0 300 0 -2 -302z"/>
<path d="M4920 5170 l0 -180 180 0 180 0 0 180 0 180 -180 0 -180 0 0 -180z"/>
<path d="M1064 5217 c-3 -8 -4 -34 -2 -58 l3 -44 63 -3 63 -3 -3 58 -3 58 -58
3 c-43 2 -59 -1 -63 -11z"/>
<path d="M4432 4803 l3 -58 60 0 60 0 0 55 0 55 -63 3 -63 3 3 -58z"/>
<path d="M100 4560 l0 -61 58 3 57 3 3 58 3 57 -61 0 -60 0 0 -60z"/>
<path d="M4680 4560 l0 -61 58 3 57 3 3 58 3 57 -61 0 -60 0 0 -60z"/>
<path d="M220 4320 l0 -60 60 0 60 0 0 60 0 60 -60 0 -60 0 0 -60z"/>
<path d="M100 4080 l0 -59 58 -3 57 -3 3 -57 3 -58 -61 0 -60 0 0 -120 0 -119
58 -3 57 -3 0 -60 0 -60 -57 -3 -58 -3 0 -59 0 -60 60 0 60 0 0 -60 0 -61 58
3 57 3 3 57 3 57 57 3 57 3 3 243 2 242 -60 0 -60 0 0 120 0 120 -120 0 -120
0 0 -60z"/>
<path d="M5407 4013 c-4 -3 -7 -30 -7 -60 l0 -53 60 0 60 0 0 60 0 60 -53 0
c-30 0 -57 -3 -60 -7z"/>
<path d="M1363 2582 l-53 -3 0 -60 0 -60 58 3 57 3 3 54 c2 30 0 57 -5 60 -4
3 -32 5 -60 3z"/>
<path d="M338 2283 l-3 -58 -57 -3 -58 -3 0 -59 0 -60 60 0 60 0 0 -120 0
-120 -60 0 -60 0 0 60 0 60 -60 0 -60 0 0 -180 0 -180 60 0 60 0 0 60 0 60
120 0 120 0 0 -60 0 -60 -60 0 -60 0 0 -60 0 -60 60 0 60 0 0 60 0 60 120 0
120 0 0 60 0 60 -120 0 -120 0 0 300 0 300 -60 0 -59 0 -3 -57z"/>
<path d="M1308 2223 l-3 -118 -57 -3 -57 -3 -3 -57 -3 -57 -60 -5 -60 -5 0
-55 0 -55 120 -5 120 -5 3 -57 3 -57 -123 -3 -123 -3 0 -55 0 -55 123 -3 122
-3 0 61 0 60 60 0 60 0 0 300 0 300 -60 0 -59 0 -3 -117z"/>
<path d="M827 1733 c-4 -3 -7 -30 -7 -60 l0 -53 60 0 60 0 0 60 0 60 -53 0
c-30 0 -57 -3 -60 -7z"/>
<path d="M587 1493 c-4 -3 -7 -30 -7 -59 l0 -54 -177 -2 -178 -3 -3 -62 -3
-63 -59 0 -60 0 0 -60 0 -61 58 3 57 3 3 58 3 57 119 0 119 0 3 -57 3 -58 118
-3 117 -3 0 186 0 185 -53 0 c-30 0 -57 -3 -60 -7z"/>
<path d="M827 1493 c-4 -3 -7 -30 -7 -59 l0 -53 58 -3 57 -3 5 -60 5 -60 58
-3 57 -3 0 126 0 125 -113 0 c-63 0 -117 -3 -120 -7z"/>
<path d="M822 1193 l3 -58 58 -3 57 -3 0 61 0 60 -60 0 -61 0 3 -57z"/>
<path d="M100 590 l0 -420 420 0 420 0 0 420 0 420 -420 0 -420 0 0 -420z
m720 0 l0 -300 -300 0 -300 0 0 300 0 300 300 0 300 0 0 -300z"/>
<path d="M340 590 l0 -180 180 0 180 0 0 180 0 180 -180 0 -180 0 0 -180z"/>
<path d="M4070 410 l0 -120 60 0 59 0 3 58 3 57 58 3 57 3 0 -121 0 -120 245
0 246 0 -3 58 -3 57 -183 3 -183 2 3 58 3 57 60 5 60 5 0 55 0 55 -60 0 -60 0
-3 -57 -3 -58 -59 0 -60 0 0 60 0 60 -120 0 -120 0 0 -120z"/>
<path d="M2987 403 c-4 -3 -7 -57 -7 -120 l0 -113 120 0 120 0 0 120 0 120
-113 0 c-63 0 -117 -3 -120 -7z"/>
<path d="M3470 230 l0 -60 60 0 61 0 -3 58 -3 57 -57 3 -58 3 0 -61z"/>
<path d="M3710 230 l0 -60 120 0 121 0 -3 58 -3 57 -117 3 -118 3 0 -61z"/>
</g>
</svg>
