<?xml version="1.0" encoding="UTF-8"?>
<svg id="Camada_2" xmlns="http://www.w3.org/2000/svg" viewBox="0 0 1756.36 144.54">
  <defs>
    <style>
      .cls-1 {
        fill: #fff;
      }

      .cls-2 {
        fill: #ff202a;
      }
    </style>
  </defs>
  <g id="Camada_1-2" data-name="Camada_1">
    <path class="cls-1" d="M855.65,144.54h-30.95l-36.67-104.84c-2.13-6.15-7.73-10.14-14.24-10.14h-31.24c-6.52,0-12.11,3.99-14.24,10.12l-36.68,104.86h-30.95l41.52-118.44C707.46,10.52,722.22.02,738.91.02h38.52c16.69,0,31.45,10.5,36.74,26.13l41.48,118.39Z"/>
    <path class="cls-1" d="M194.98,144.54h-30.95l-36.67-104.84c-2.15-6.15-7.75-10.14-14.26-10.14h-31.23c-6.52,0-12.11,3.99-14.26,10.12l-36.67,104.86H0L41.52,26.1C46.79,10.52,61.55.02,78.22.02h38.52c16.69,0,31.45,10.5,36.74,26.13l41.5,118.39Z"/>
    <path class="cls-1" d="M1159.55,71.32v1.91c0,25.49,17.22,41.95,43.86,41.95h101.77v29.35h-101.77c-43.11,0-73.23-29.32-73.23-71.31v-1.91C1130.17,29.34,1160.29.02,1203.41.02h101.77v29.35h-101.77c-26.63,0-43.86,16.46-43.86,41.95Z"/>
    <path class="cls-1" d="M396.2,20.41c-13.24-13.17-31.95-20.41-52.71-20.41-.14,0-.28.02-.43.02h-75.69c-17.16,0-29.15,11.97-29.15,29.15v86.23c0,17.17,11.99,29.15,29.15,29.15h75.69c42.44,0,73.23-30.07,73.23-71.5v-1.72c0-19.95-7.14-38.02-20.08-50.91ZM386.91,71.32v1.72c0,12.11-4.12,22.61-11.92,30.36-7.9,7.85-19.15,12.16-31.71,12.16h-70.16c-3.45,0-5.34-1.91-5.34-5.34V34.14c0-3.43,1.89-5.34,5.34-5.34h69.75c25.94,0,44.05,17.48,44.05,42.52Z"/>
    <polygon class="cls-1" points="1392.01 29.56 1392.01 57.5 1527.62 57.5 1527.62 87.06 1392.01 87.06 1392.01 114.98 1527.62 114.98 1527.62 144.54 1362.45 144.54 1362.45 .02 1527.62 .02 1527.62 29.56 1392.01 29.56"/>
    <polygon class="cls-2" points="1756.36 55.76 1756.36 85.33 1688.33 85.33 1688.33 143.01 1658.77 143.01 1658.77 85.33 1590.75 85.33 1590.75 55.76 1658.77 55.76 1658.77 2.65 1688.33 2.65 1688.33 55.76 1756.36 55.76"/>
    <path class="cls-1" d="M1073.25.02v144.52h-38.54c-16.46,0-32.04-9.44-39.68-24.05l-43.51-84.34c-1.98-3.97-6.26-6.58-10.71-6.58h-13.19v114.98h-29.56V.02h38.54c16.46,0,32.04,9.44,39.68,24.05l43.51,84.34c1.99,3.86,6.39,6.58,10.71,6.58h13.19V.02h29.56Z"/>
    <path class="cls-1" d="M638.28.02l-41.52,118.44c-5.27,15.58-20.01,26.08-36.7,26.08h-42.35c-16.69,0-31.45-10.5-36.74-26.13L439.47.02h30.95l38.02,108.48c1.37,3.88,5.03,6.5,9.08,6.5h42.73c4.05,0,7.71-2.62,9.08-6.52L607.33.02h30.95Z"/>
  </g>
</svg>